# xmcd
#
# Track frame offsets: 
#        150
#        11847
#        22591
#        32762
#        42849
#        52988
#        66191
#        78305
#        89035
#        100981
#        109793
#        120320
#        136311
#        145756
#        156754
#        168159
#        179292
#        189710
#        201235
#        212893
#        225080
#        238145
#        248792
#        261712
#        273558
#        287115
#
# Disc length: 3956 seconds
#
# Revision: 0
# Processed by: cddbd v1.5.2PL0 Copyright (c) Steve Scherf et al.
# Submitted via: ExactAudioCopy v1.1
#
DISCID=700f721a
DTITLE=Maxine Brown - A Funny Kind Of Feeling Complete 1960-1962 Recor
DTITLE=dings
DYEAR=2016
DGENRE=R&B
TTITLE0=All In My Mind
TTITLE1=Now That You've Gone
TTITLE2=My Life
TTITLE3=Heaven In You Arms
TTITLE4=I Got A Funny Kind Of Feeling
TTITLE5=Harry Let's Marry
TTITLE6=Think Of Me
TTITLE7=I Don't Need You No More
TTITLE8=After All We've Been Through
TTITLE9=If I Knew Then (What I Know Now)
TTITLE10=Funny
TTITLE11=Ask Me
TTITLE12=Am I Falling In Love
TTITLE13=Forget Him
TTITLE14=If You Have No Real Objections
TTITLE15=Yesterday's Kisses
TTITLE16=A Man
TTITLE17=I Kneel At Your Throne
TTITLE18=Oh No, Not My Baby
TTITLE19=What I Don't Know (Won't Hurt Me)
TTITLE20=Since I Found You
TTITLE21=Maxine's Place
TTITLE22=Life Goes On Just The Same
TTITLE23=Promise Me Anything
TTITLE24=My Time For Cryin'
TTITLE25=Wanting You
EXTD=
EXTT0=
EXTT1=
EXTT2=
EXTT3=
EXTT4=
EXTT5=
EXTT6=
EXTT7=
EXTT8=
EXTT9=
EXTT10=
EXTT11=
EXTT12=
EXTT13=
EXTT14=
EXTT15=
EXTT16=
EXTT17=
EXTT18=
EXTT19=
EXTT20=
EXTT21=
EXTT22=
EXTT23=
EXTT24=
EXTT25=
PLAYORDER=
